<?xml version="1.0" standalone="no"?><!DOCTYPE svg PUBLIC "-//W3C//DTD SVG 1.1//EN" "http://www.w3.org/Graphics/SVG/1.1/DTD/svg11.dtd"><svg class="icon" style="" viewBox="0 0 1024 1024" version="1.1" xmlns="http://www.w3.org/2000/svg" p-id="4695" xmlns:xlink="http://www.w3.org/1999/xlink" width="200" height="200"><defs><style type="text/css"><![CDATA[

]]></style></defs><path d="M840.59136 897.07008 203.70944 897.07008c-41.74848 0-84.10624-17.17248-116.1984-47.11936-33.8176-31.54944-53.21728-74.02496-53.21728-116.54144L34.29376 272.78848c0-43.71968 19.30752-84.76672 54.36928-115.56864 31.86688-27.99104 73.79968-44.04736 115.0464-44.04736l636.88192 0c43.36128 0 82.19136 17.54624 109.3376 49.39776 24.58624 28.83584 38.12352 67.97824 38.12352 110.21312l0 460.6208c0 41.76896-13.18912 81.20832-37.1456 111.04768C923.67872 878.3872 884.50048 897.07008 840.59136 897.07008zM203.70944 174.61248c-26.53696 0-53.68832 10.48064-74.496 28.76416-21.59104 18.9696-33.4848 43.6224-33.4848 69.41184l0 460.6208c0 25.53856 12.27776 51.64544 33.6896 71.61344 20.84864 19.45088 47.9232 30.60736 74.2912 30.60736l636.88192 0c25.27232 0 46.848-10.24512 62.40768-29.62944 15.232-18.97472 23.61344-44.75392 23.61344-72.59136L926.61248 272.78848c0-27.63776-8.32512-52.62336-23.44448-70.35904-15.2832-17.94048-37.50912-27.81696-62.58176-27.81696L203.70944 174.61248zM299.61728 354.96448c-64.02048 0-116.10624 52.08576-116.10624 116.10624 0 64.0256 52.08576 116.10624 116.10624 116.10624 64.02048 0 116.10624-52.08576 116.10624-116.10624C415.72352 407.04512 363.63776 354.96448 299.61728 354.96448zM299.61728 529.12128c-32.01024 0-58.05056-26.04032-58.05056-58.05056 0-32.01024 26.04032-58.05568 58.05056-58.05568s58.05056 26.04032 58.05056 58.05568C357.66784 503.08096 331.62752 529.12128 299.61728 529.12128zM489.68704 583.02976l318.24384 0 0 58.05568-318.24384 0 0-58.05568ZM489.68704 369.66912l318.24384 0 0 58.05568-318.24384 0 0-58.05568Z" p-id="4696"></path></svg>