<?xml version="1.0" standalone="no"?><!DOCTYPE svg PUBLIC "-//W3C//DTD SVG 1.1//EN" "http://www.w3.org/Graphics/SVG/1.1/DTD/svg11.dtd"><svg class="icon" style="" viewBox="0 0 1024 1024" version="1.1" xmlns="http://www.w3.org/2000/svg" p-id="1595" xmlns:xlink="http://www.w3.org/1999/xlink" width="200" height="200"><defs><style type="text/css"><![CDATA[

]]></style></defs><path d="M512 896c-32.768 0-64.669538-2.993231-95.704615-8.073846L192 1024l0-226.540308C75.067077 715.303385 0 589.390769 0 448 0 200.585846 229.218462 0 512 0s512 200.585846 512 448C1024 695.453538 794.781538 896 512 896zM512 64c-247.374769 0-448 171.913846-448 384 0 130.126769 75.697231 244.893538 191.212308 314.368l-2.048 148.401231 150.646154-90.545231c34.697846 7.443692 70.774154 11.776 108.150154 11.776 247.453538 0 448-171.913846 448-384C960 235.953231 759.453538 64 512 64zM768 512c-35.328 0-64-28.632615-64-64S732.672 384 768 384s64 28.672 64 64S803.328 512 768 512zM512 512c-35.288615 0-64-28.632615-64-64S476.711385 384 512 384c35.328 0 64 28.672 64 64S547.328 512 512 512zM256 512c-35.288615 0-64-28.632615-64-64S220.711385 384 256 384c35.328 0 64 28.672 64 64S291.328 512 256 512z" p-id="1596"></path></svg>